<svg width="58" height="58" viewBox="0 0 58 58" fill="none" xmlns="http://www.w3.org/2000/svg">
<g filter="url(#filter0_d_144_4)">
<rect x="4" width="50" height="50" rx="15" fill="white"/>
</g>
<path fill-rule="evenodd" clip-rule="evenodd" d="M24.8571 19.6357C24.778 19.0176 25.2108 18.5124 25.8238 18.5072L34.8318 18.431C35.1526 18.4283 35.4756 18.5656 35.7176 18.8076C35.9595 19.0496 36.0969 19.3726 36.0942 19.6934L36.018 28.7014C36.0128 29.3144 35.5076 29.7472 34.8895 29.668C34.2715 29.5889 33.7746 29.0278 33.7798 28.4148L33.831 22.3689L24.923 31.2769C24.513 31.6869 23.8056 31.6445 23.3432 31.182C22.8807 30.7195 22.8382 30.0122 23.2483 29.6022L32.1562 20.6942L26.1103 20.7454C25.4973 20.7505 24.9363 20.2537 24.8571 19.6357Z" fill="black"/>
<defs>
<filter id="filter0_d_144_4" x="0" y="0" width="58" height="58" filterUnits="userSpaceOnUse" color-interpolation-filters="sRGB">
<feFlood flood-opacity="0" result="BackgroundImageFix"/>
<feColorMatrix in="SourceAlpha" type="matrix" values="0 0 0 0 0 0 0 0 0 0 0 0 0 0 0 0 0 0 127 0" result="hardAlpha"/>
<feOffset dy="4"/>
<feGaussianBlur stdDeviation="2"/>
<feComposite in2="hardAlpha" operator="out"/>
<feColorMatrix type="matrix" values="0 0 0 0 0.121569 0 0 0 0 0.121569 0 0 0 0 0.12549 0 0 0 0.1 0"/>
<feBlend mode="normal" in2="BackgroundImageFix" result="effect1_dropShadow_144_4"/>
<feBlend mode="normal" in="SourceGraphic" in2="effect1_dropShadow_144_4" result="shape"/>
</filter>
</defs>
</svg>
