<svg width="50" height="50" viewBox="0 0 50 50" fill="none" xmlns="http://www.w3.org/2000/svg">
<rect width="50" height="50" rx="15" fill="white"/>
<path fill-rule="evenodd" clip-rule="evenodd" d="M20.8571 19.6357C20.778 19.0176 21.2108 18.5124 21.8238 18.5072L30.8318 18.431C31.1526 18.4283 31.4756 18.5656 31.7176 18.8076C31.9595 19.0496 32.0969 19.3726 32.0942 19.6934L32.018 28.7014C32.0128 29.3144 31.5076 29.7472 30.8895 29.668C30.2715 29.5889 29.7746 29.0278 29.7798 28.4148L29.831 22.3689L20.923 31.2769C20.513 31.6869 19.8056 31.6445 19.3432 31.182C18.8807 30.7195 18.8382 30.0122 19.2483 29.6022L28.1562 20.6942L22.1103 20.7454C21.4973 20.7505 20.9363 20.2537 20.8571 19.6357Z" fill="black"/>
</svg>
